PathFileType	4	(X/Y/Z)	C:\Users\Biomechanik\SynologyDrive\AlexP\Athlete_03\Athlete_3_25_03_31\Squat_bar_02\marker_experimental.trc
DataRate	CameraRate	NumFrames	NumMarkers	Units	OrigDataRate	OrigDataStartFrame	OrigNumFrames
200.000000	200.000000	4	55	mm	200.000000	65	522
Frame#	Time	BL			BR			GLAB			RFHD			LFHD			C7			T6			SPINMOL			SPINM2			SPINM3			T12			BELTOL			BELT2			BELT3			SACROL			SACR2			SACR3			LTHOL			LTH2			LTH3			LSHAOL			LSHA2			LSHA3			LHEE			LTOE			LM5			RTHOL			RTH2			RTH3			RSHAOL			RSHA2			RSHA3			RHEE			RTOE			RM5			STRN			XIPH			LACR			LUAOL			LUA2			LUA3			LLAOL			LLA2			LLA3			LWRR			LWRU			RACR			RUAOL			RUA2			RUA3			RLAOL			RLA2			RLA3			RWRR			RWRU			
		X1	Y1	Z1	X2	Y2	Z2	X3	Y3	Z3	X4	Y4	Z4	X5	Y5	Z5	X6	Y6	Z6	X7	Y7	Z7	X8	Y8	Z8	X9	Y9	Z9	X10	Y10	Z10	X11	Y11	Z11	X12	Y12	Z12	X13	Y13	Z13	X14	Y14	Z14	X15	Y15	Z15	X16	Y16	Z16	X17	Y17	Z17	X18	Y18	Z18	X19	Y19	Z19	X20	Y20	Z20	X21	Y21	Z21	X22	Y22	Z22	X23	Y23	Z23	X24	Y24	Z24	X25	Y25	Z25	X26	Y26	Z26	X27	Y27	Z27	X28	Y28	Z28	X29	Y29	Z29	X30	Y30	Z30	X31	Y31	Z31	X32	Y32	Z32	X33	Y33	Z33	X34	Y34	Z34	X35	Y35	Z35	X36	Y36	Z36	X37	Y37	Z37	X38	Y38	Z38	X39	Y39	Z39	X40	Y40	Z40	X41	Y41	Z41	X42	Y42	Z42	X43	Y43	Z43	X44	Y44	Z44	X45	Y45	Z45	X46	Y46	Z46	X47	Y47	Z47	X48	Y48	Z48	X49	Y49	Z49	X50	Y50	Z50	X51	Y51	Z51	X52	Y52	Z52	X53	Y53	Z53	X54	Y54	Z54	X55	Y55	Z55	

66	0.325	157.0498352050781	1344.36669921875	-2237.582275390625	193.3799133300781	1351.360107421875	-216.4143676757812	459.4070434570312	1545.496459960938	-1188.3857421875	408.3240661621094	1570.083984375	-1125.634643554688	416.8211059570312	1570.211303710938	-1261.029663085938	223.883544921875	1415.473266601562	-1197.811889648438	125.2338943481445	1270.389038085938	-1209.426391601562	107.845458984375	1238.216552734375	-1229.657348632812	99.0386962890625	1230.392333984375	-1180.795166015625	91.18113708496094	1175.454711914062	-1216.624877929688	81.93310546875	1108.296508789062	-1217.326538085938	53.02008056640625	1078.377685546875	-1233.99951171875	51.50601959228516	1075.1953125	-1183.991943359375	34.57772064208984	1017.771423339844	-1213.525512695312	17.02787971496582	934.6683349609376	-1237.487670898438	15.82766914367676	932.3647460937501	-1185.857788085938	5.285123348236084	873.4414672851564	-1214.479614257812	131.2601470947266	664.2576293945314	-1438.152465820312	107.9325485229492	592.2807617187501	-1413.446899414062	147.6591644287109	604.7797851562501	-1441.78466796875	154.6184844970703	334.1304321289064	-1523.670043945312	111.2231903076172	269.2596130371095	-1507.7001953125	157.0504913330078	272.2297363281251	-1529.391357421875	107.9620742797852	69.14166259765634	-1468.985961914062	314.709716796875	50.12683486938486	-1536.112060546875	240.7431182861328	27.56494903564463	-1617.69677734375	97.88190460205078	670.8772583007814	-987.4351196289062	154.4207916259766	637.6130371093751	-941.50146484375	122.0678863525391	615.6847534179689	-972.0692749023438	115.3207778930664	349.8452758789063	-899.4683837890625	141.9755706787109	280.9277343750001	-872.84521484375	104.2068405151367	288.5950927734376	-904.087646484375	87.90170288085938	63.5885963439942	-964.8294067382812	280.5147399902344	47.76233673095709	-871.6943359375	192.4818878173828	38.58437347412114	-800.168701171875	362.3619995117188	1278.210205078125	-1205.274291992188	350.7430725097656	1132.628784179688	-1203.22607421875	262.8785400390625	1377.03271484375	-1368.071166992188	155.7681884765625	1255.359741210938	-1458.275512695312	110.8863983154297	1209.187866210938	-1445.619140625	140.9864501953125	1197.54296875	-1485.1591796875	115.5731735229492	1128.810791015625	-1553.484375	185.4435119628906	1128.360961914062	-1590.995849609375	155.3121948242188	1167.277465820312	-1580.304809570312	207.4538421630859	1249.37109375	-1621.680419921875	218.0653991699219	1279.516845703125	-1549.587524414062	276.1432800292969	1367.8818359375	-1038.463500976562	173.42041015625	1245.014526367188	-956.2637939453124	153.484130859375	1188.565795898438	-929.0210571289061	131.3476409912109	1198.33154296875	-975.0877685546874	157.2452697753906	1117.7705078125	-845.3941650390624	152.1482238769531	1196.649169921875	-832.4623413085936	191.7346649169922	1165.119506835938	-823.8594360351561	217.4227905273438	1253.776245117188	-803.3096923828124	236.0720062255859	1288.509521484375	-872.9480590820311	
67	0.33	157.6522674560547	1343.0283203125	-2237.65576171875	193.9460601806641	1350.359497070312	-216.486343383789	460.0807495117188	1543.864501953125	-1188.448120117188	409.0103759765625	1568.508056640625	-1125.70751953125	417.5265502929688	1568.5927734375	-1261.104614257812	224.4358978271484	1414.157470703125	-1197.85205078125	125.5311126708984	1269.2763671875	-1209.464111328125	108.0805282592773	1237.168334960938	-1229.693359375	99.25746154785156	1229.37744140625	-1180.8271484375	91.21944427490234	1174.463500976562	-1216.651123046875	81.72454833984375	1107.427734375	-1217.305541992188	52.66497421264648	1077.708740234375	-1233.962646484375	51.1082878112793	1074.569580078125	-1183.942016601562	33.97760772705078	1017.189453125	-1213.418823242188	16.09673500061035	933.8685302734376	-1237.349487304688	14.91143131256104	931.6093750000001	-1185.71923828125	4.211030960083008	872.6844482421876	-1214.282836914062	131.5269622802734	663.4412231445314	-1439.032348632812	108.4907989501953	591.2290039062501	-1414.863403320312	148.3073272705078	604.1212768554689	-1442.92431640625	155.7101440429688	334.0733642578126	-1524.728393554688	112.0650405883789	269.423309326172	-1508.545166015625	157.9053344726562	272.1486206054689	-1530.24072265625	107.9515151977539	69.1492462158204	-1468.99609375	314.7044677734375	50.12596893310556	-1536.123779296875	240.7427368164062	27.56451988220225	-1617.699462890625	98.06726837158203	669.9170532226564	-986.0989379882812	154.9174346923828	637.2235107421876	-940.1405639648438	122.7020492553711	614.9434814453126	-970.5838012695312	116.5720901489258	349.8057250976563	-898.0518798828125	142.9599761962891	280.6721801757813	-871.7554931640625	105.2023544311523	288.6210327148438	-902.9287719726562	87.90010070800781	63.60559082031256	-964.8202514648438	280.5144348144531	47.77202224731451	-871.6648559570312	192.4775848388672	38.5769538879395	-800.1595458984375	362.66796875	1276.624145507812	-1205.279907226562	350.6933898925781	1131.024047851562	-1203.18896484375	263.4819946289062	1375.582641601562	-1368.131713867188	156.1687164306641	1254.071899414062	-1458.379028320312	111.2312774658203	1207.960815429688	-1445.73291015625	141.3150024414062	1196.27587890625	-1485.272827148438	115.8481597900391	1127.6083984375	-1553.624755859375	185.7248077392578	1127.079956054688	-1591.118408203125	155.641845703125	1166.033935546875	-1580.422241210938	207.8908843994141	1248.070678710938	-1621.761352539062	218.5315399169922	1278.179931640625	-1549.653442382812	276.6986083984375	1366.484619140625	-1038.451171875	173.8477783203125	1243.764038085938	-956.1798706054686	153.8632965087891	1187.354125976562	-928.8976440429686	131.7010345458984	1197.122802734375	-974.9512939453124	157.5830535888672	1116.631225585938	-845.2216186523436	152.5536956787109	1195.525634765625	-832.3572998046874	192.1235809326172	1163.970581054688	-823.7256469726561	217.8767547607422	1252.618041992188	-803.2702026367186	236.5924377441406	1287.262084960938	-872.9379882812499	
68	0.335	158.2641296386719	1341.610107421875	-2237.726806640625	194.5136260986328	1349.290771484375	-216.5554199218749	460.7615661621094	1542.162109375	-1188.516357421875	409.705078125	1566.862426757812	-1125.789672851562	418.2356567382812	1566.89990234375	-1261.1865234375	224.9990692138672	1412.772338867188	-1197.890380859375	125.8305282592773	1268.105224609375	-1209.493896484375	108.3135681152344	1236.06298828125	-1229.720336914062	99.47978973388672	1228.306396484375	-1180.848388671875	91.25478363037109	1173.417114257812	-1216.667724609375	81.51225280761719	1106.498657226562	-1217.277587890625	52.30378723144531	1076.975463867188	-1233.92041015625	50.70791244506836	1073.878051757812	-1183.88916015625	33.37120819091797	1016.546264648438	-1213.314086914062	15.15594577789307	932.9963378906251	-1237.214111328125	13.988525390625	930.7782592773439	-1185.58447265625	3.143641948699951	871.8504638671876	-1214.0908203125	131.7980194091797	662.6009521484376	-1439.942749023438	109.0623779296875	590.1609497070314	-1416.30908203125	148.9595947265625	603.4495239257814	-1444.099365234375	156.7960968017578	334.0040893554689	-1525.8046875	112.9060745239258	269.5743408203126	-1509.403564453125	158.7564849853516	272.0554504394532	-1531.103881835938	107.9416809082031	69.15646362304696	-1469.008544921875	314.6980285644531	50.12669372558603	-1536.137451171875	240.7412567138672	27.56137466430674	-1617.704711914062	98.24423217773438	668.9165649414064	-984.7642822265625	155.3892669677734	636.7966918945314	-938.7698364257812	123.3252334594727	614.1676025390626	-969.1026000976562	117.8143920898438	349.7528381347657	-896.6396484375	143.9300384521484	280.4068603515626	-870.6695556640625	106.1901931762695	288.6354370117188	-901.7760009765625	87.89744567871094	63.62178421020513	-964.811279296875	280.5143127441406	47.78385925292974	-871.6367797851562	192.4722900390625	38.56835556030278	-800.149169921875	362.9795227050781	1274.956176757812	-1205.28173828125	350.638427734375	1129.34228515625	-1203.147827148438	264.0945129394531	1374.056640625	-1368.189697265625	156.5719299316406	1252.713134765625	-1458.477905273438	111.5733489990234	1206.665161132812	-1445.8408203125	141.6399993896484	1194.9384765625	-1485.380981445312	116.1135330200195	1126.337036132812	-1553.75732421875	185.9948425292969	1125.723999023438	-1591.232666015625	155.9641265869141	1164.717529296875	-1580.533325195312	208.3268280029297	1246.692138671875	-1621.83837890625	218.9993286132812	1276.765502929688	-1549.716430664062	277.2651672363281	1365.014404296875	-1038.436767578125	174.2717742919922	1242.451416015625	-956.0958251953124	154.2346038818359	1186.082153320312	-928.7771606445311	132.0477600097656	1195.857299804688	-974.8188476562499	157.9030609130859	1115.426025390625	-845.0529174804686	152.9474182128906	1194.3349609375	-832.2536010742186	192.4960327148438	1162.7509765625	-823.5932006835936	218.3240966796875	1251.386108398438	-803.2291259765624	237.1122894287109	1285.941040039062	-872.9251098632811	
69	0.34	158.8843536376953	1340.111206054688	-2237.79541015625	195.0814666748047	1348.153198242188	-216.6214294433593	461.4490051269531	1540.39013671875	-1188.590209960938	410.4075317382812	1565.147583007812	-1125.881103515625	418.9474792480469	1565.1328125	-1261.275268554688	225.5737457275391	1411.317016601562	-1197.926513671875	126.1325912475586	1266.87548828125	-1209.515502929688	108.5451507568359	1234.900512695312	-1229.738647460938	99.70548248291016	1227.17919921875	-1180.859252929688	91.28734588623047	1172.315551757812	-1216.675048828125	81.29617309570312	1105.510131835938	-1217.243041992188	51.93607711791992	1076.178833007812	-1233.8720703125	50.30553436279297	1073.121337890625	-1183.83447265625	32.75852203369141	1015.842895507813	-1213.211181640625	14.20601081848145	932.0526123046876	-1237.081665039062	13.05996417999268	929.8716430664064	-1185.45361328125	2.084119319915771	870.9400024414064	-1213.904052734375	132.0668334960938	661.7347412109376	-1440.877197265625	109.6444320678711	589.0732421875001	-1417.774780273438	149.6107635498047	602.7612304687501	-1445.30322265625	157.8770751953125	333.9224243164064	-1526.89697265625	113.746452331543	269.7127075195314	-1510.274536132812	159.6045227050781	271.9502258300782	-1531.978881835938	107.9326705932617	69.16329956054696	-1469.023071289062	314.6905822753906	50.12944793701181	-1536.151977539062	240.7386322021484	27.55554580688487	-1617.712280273438	98.41098785400391	667.8736572265626	-983.4357299804688	155.8340301513672	636.3325195312501	-937.3917846679688	123.9361038208008	613.3557128906251	-967.6278076171875	119.0495758056641	349.6865234375001	-895.232177734375	144.8895874023438	280.1313476562501	-869.5896606445312	107.1717910766602	288.6382751464844	-900.6290283203125	87.89383697509766	63.63745498657232	-964.802490234375	280.5144958496094	47.79753494262701	-871.6106567382812	192.4661102294922	38.55876159667974	-800.1377563476562	363.2970581054688	1273.206176757812	-1205.27978515625	350.5788879394531	1127.583984375	-1203.102416992188	264.715576171875	1372.454711914062	-1368.244140625	156.9775848388672	1251.28369140625	-1458.570922851562	111.9125671386719	1205.301147460938	-1445.942016601562	141.9616241455078	1193.53076171875	-1485.481323242188	116.3694458007812	1124.996337890625	-1553.88037109375	186.2539672851562	1124.292358398438	-1591.337524414062	156.2791748046875	1163.32763671875	-1580.636596679688	208.7615203857422	1245.234741210938	-1621.911010742188	219.4682922363281	1275.273193359375	-1549.775634765625	277.8418884277344	1363.470336914062	-1038.4208984375	174.69091796875	1241.076293945312	-956.0125122070311	154.5965423583984	1184.749145507812	-928.6606445312499	132.3868255615234	1194.534423828125	-974.6915893554686	158.2046661376953	1114.154418945312	-844.8886108398436	153.3291778564453	1193.076049804688	-832.1514282226561	192.8506317138672	1161.45947265625	-823.4632568359374	218.7642364501953	1250.079711914062	-803.1871337890624	237.6304016113281	1284.546264648438	-872.9103393554686	
